<?xml version="1.0" encoding="utf-8"?>
<!-- Generator: Adobe Illustrator 23.0.1, SVG Export Plug-In . SVG Version: 6.00 Build 0)  -->
<svg version="1.1" id="Layer_1" xmlns="http://www.w3.org/2000/svg" xmlns:xlink="http://www.w3.org/1999/xlink" x="0px" y="0px"
	 width="500.0318909px" height="204.0948029px" viewBox="0 0 500.0318909 204.0948029"
	 style="enable-background:new 0 0 500.0318909 204.0948029;" xml:space="preserve">
<style type="text/css">
	.st0{fill:#202020;}
	.st1{fill:#008342;}
</style>
<g>
	<path class="st0" d="M167.7174377,101.1245346c3.9788971,0,7.0362091-1.2618027,8.7830963-3.0572968
		c1.2132111-1.2122955,2.3778076-3.2994003,2.3778076-6.3557968c0-2.572197-0.8739014-4.6584015-2.1843109-5.9201965
		c-1.0187836-0.9701996-2.7170868-1.7469025-4.41539-1.9412918c1.2131958-0.5337067,1.9412994-1.2609024,2.6208038-2.5227127
		c0.6786041-1.3589935,0.9215851-2.572197,0.9215851-3.9788895c0-2.8628998-0.8730011-4.8528137-1.9898987-6.0651093
		c-1.9889832-2.184288-4.7546844-2.5236053-7.0838928-2.5236053H154.228241v32.3648987H167.7174377z M162.6225433,75.2135391
		h1.5525055c1.6496887,0,2.6693878,0.4365005,3.2030945,0.9702072c0.4850922,0.533699,0.7767029,1.3589935,0.7767029,2.1833954
		c0,0.7281036-0.2430115,1.6011047-0.7767029,2.1348038c-0.8739014,0.9225006-2.3292084,1.0196991-3.2030945,1.0196991h-1.5525055
		V75.2135391z M162.6225433,87.7802429h1.7468872c2.0862122,0,4.1733093,0.0485992,5.1921234,1.0682907
		c0.4850769,0.4851074,0.8252869,1.3095016,0.8252869,2.3292084c0,0.9216003-0.2916107,1.6496964-0.6795044,2.0861969
		c-0.9225006,1.0673981-2.8628998,1.3104019-5.1920929,1.3104019h-1.8927002V87.7802429z M182.7501373,101.1245346h8.3943024
		V68.7596359h-8.3943024V101.1245346z M230.7534332,84.9659424c0-4.3182068-1.649704-8.8794022-5.0948944-12.1301956
		c-3.299408-3.1545105-7.9586945-4.8041992-12.7619934-4.8041992c-4.8033142,0-9.4617004,1.6496887-12.7611084,4.8041992
		c-3.4452057,3.2507935-5.0948944,7.8119888-5.0948944,12.1301956c0,4.2705002,1.6496887,8.7831039,5.0948944,12.0824966
		c3.299408,3.1545029,7.9577942,4.8041992,12.7611084,4.8041992c4.803299,0,9.4625854-1.6496964,12.7619934-4.8041992
		C229.1037292,93.7490463,230.7534332,89.2364426,230.7534332,84.9659424 M212.8965454,76.1837463
		c2.2319946,0,4.7069855,0.8730011,6.5025024,2.5712967c1.503891,1.4562073,2.6198883,3.6882019,2.6198883,6.2108994
		c0,2.4749985-1.1159973,4.7069931-2.6198883,6.2117996c-1.5048065,1.5038986-3.6396027,2.5226974-6.5025024,2.5226974
		c-2.8143005,0-4.9976959-1.0673981-6.5502014-2.5712967c-1.2132111-1.1646042-2.5722046-3.1545029-2.5722046-6.0174026
		c0-2.2805939,0.8253021-4.6583939,2.5722046-6.3566971C208.0932312,77.0081482,210.567337,76.1837463,212.8965454,76.1837463
		 M253.2138214,68.7596359h-18.5354919v32.3648987h8.3942871V88.4111404h9.2196198v-7.1324997h-9.2196198v-5.3864975h10.1412048
		V68.7596359z M290.4891052,84.9659424c0-4.3182068-1.6496582-8.8794022-5.0948792-12.1301956
		c-3.299408-3.1545105-7.9577942-4.8041992-12.7611084-4.8041992c-4.8041687,0-9.4625854,1.6496887-12.7619934,4.8041992
		c-3.4451904,3.2507935-5.0949097,7.8119888-5.0949097,12.1301956c0,4.2705002,1.6497192,8.7831039,5.0949097,12.0824966
		c3.299408,3.1545029,7.9578247,4.8041992,12.7619934,4.8041992c4.8033142,0,9.4617004-1.6496964,12.7611084-4.8041992
		C288.839447,93.7490463,290.4891052,89.2364426,290.4891052,84.9659424 M272.6331177,76.1837463
		c2.2320251,0,4.7061157,0.8730011,6.5015869,2.5712967c1.5048218,1.4562073,2.6199341,3.6882019,2.6199341,6.2108994
		c0,2.4749985-1.1151123,4.7069931-2.6199341,6.2117996c-1.5038757,1.5038986-3.6395569,2.5226974-6.5015869,2.5226974
		c-2.81427,0-4.9985962-1.0673981-6.5510864-2.5712967c-1.2131958-1.1646042-2.5722046-3.1545029-2.5722046-6.0174026
		c0-2.2805939,0.8252869-4.6583939,2.5722046-6.3566971C267.828949,77.0081482,270.3039246,76.1837463,272.6331177,76.1837463
		 M294.414032,68.7596359v32.3648987h8.3943176V88.7027512l8.0558777,12.4217834h10.4319153l-10.1412354-13.2470932
		c1.5039368-0.2906952,3.20224-1.0188065,4.4640198-2.2319946c1.6019897-1.5525055,2.5721741-3.9789047,2.5721741-6.744606
		c0-2.5712967-0.9224854-5.3855896-2.766571-7.2782898c-2.3769226-2.4749985-5.4827881-2.862915-7.9092102-2.862915H294.414032z
		 M302.8083496,75.262146h1.6019897c1.8440857,0,3.2507935,0.4850998,4.0274963,1.2608948
		c0.7272034,0.6795044,1.1159973,1.7468948,1.1159973,2.7180099c0,1.0187836-0.4365234,2.0861893-1.0682983,2.7170944
		c-1.0178833,0.9701996-2.813385,1.3095016-4.0751953,1.3095016h-1.6019897V75.262146z M341.5983276,68.7596359h-18.3905945
		v32.3648987h18.3905945v-7.1324921h-9.9963074v-5.5809021h9.462616v-7.1324997h-9.462616v-5.3864975h9.9963074V68.7596359z"/>
</g>
<polygon class="st0" points="119.828331,76.564888 131.3159332,101.7963943 142.9583282,76.5621948 146.2937317,101.1249924 
	149.0405273,101.1249924 144.1742249,68.1417923 131.3591309,95.8356934 118.7852249,68.1840897 113.5913315,101.1249924 
	116.3345337,101.1249924 "/>
<g>
	<path class="st0" d="M101.8084488,84.1370468h-3.577507v-12.914093h3.2769089c5.0849915,0,7.8848953,2.2490921,7.8848953,6.3314972
		C109.392746,81.6764526,106.5577469,84.1370468,101.8084488,84.1370468 M95.5687485,101.1245422h2.6621933V86.5994415h3.7782059
		c4.8563995,0,10.0457993-2.3228912,10.0457993-8.8442917c0-1.607399-0.3725967-4.6242065-2.8727951-6.7662048
		c-2.1339035-1.8504028-4.7718048-2.2284012-8.0748062-2.2284012h-5.5385971V101.1245422z"/>
	<path class="st0" d="M66.2422485,68.7601852v20.9655075c0,2.5577927,0.2429962,5.2613983,2.0052032,7.7093964
		c1.9826965,2.7260971,5.388298,4.2902985,9.3428955,4.2902985c3.9555054,0,7.3619995-1.5642014,9.3455963-4.2929993
		c1.7604065-2.4452972,2.0034027-5.1489029,2.0034027-7.7066956V68.7601852h-2.6622009v19.9638062
		c0,2.860199,0,6.1010971-2.8386002,8.5121918c-1.4003983,1.1934052-3.8060989,2.0268021-5.8481979,2.0268021
		c-2.0411987,0-4.4459991-0.8333969-5.8472977-2.0276947c-2.8376999-2.410202-2.8376999-5.6511002-2.8376999-8.5112991V68.7601852
		H66.2422485z"/>
	<path class="st0" d="M101.9210434,135.5328064c2.9016037,0,5.1299973-0.9197998,6.4043961-2.2293091
		c0.8838043-0.8846893,1.7334061-2.4056854,1.7334061-4.6349945c0-1.8755951-0.6371994-3.3965988-1.5920944-4.3163986
		c-0.7434082-0.7074051-1.9818039-1.2734985-3.2202072-1.4156952c0.8847046-0.3888016,1.4157028-0.9198074,1.9106979-1.8396072
		c0.495903-0.9908981,0.6723022-1.8746948,0.6723022-2.9015961c0-2.0871048-0.6371994-3.5379028-1.4498978-4.4225998
		c-1.4516983-1.5921021-3.4677048-1.8396072-5.166008-1.8396072h-9.1286926v23.5998077H101.9210434z M98.2058487,116.6391068
		h1.1321945c1.2033081,0,1.9458008,0.3176956,2.3355026,0.7073975c0.3537064,0.3888016,0.5651932,0.9909058,0.5651932,1.5921021
		c0,0.5309982-0.1763992,1.1672974-0.5651932,1.5569992c-0.6371994,0.6723022-1.6983032,0.7425003-2.3355026,0.7425003h-1.1321945
		V116.6391068z M98.2058487,125.8029022h1.2743988c1.5209961,0,3.0419998,0.0351028,3.7854004,0.7785034
		c0.3536987,0.3536987,0.6011963,0.9549026,0.6011963,1.6983032c0,0.6723022-0.2123947,1.2023926-0.4950027,1.5209961
		c-0.6723022,0.7785034-2.0879974,0.954895-3.7863007,0.954895h-1.3796921V125.8029022z M126.4226456,111.9329987h-13.4091034
		v23.5998077h13.4091034v-5.2011108h-7.2891006v-4.0688858h6.9002914v-5.2011032h-6.9002914v-3.9276047h7.2891006V111.9329987z
		 M135.8204498,135.5328064h6.1559906v-11.3219986l8.8101044-12.2778091h-7.4295044l-4.282196,6.4395065l-4.4577026-6.4395065
		h-7.3242035l8.5275116,12.2778091V135.5328064z M174.9029388,123.7509079c0-3.1491013-1.2032928-6.475502-3.7151947-8.8461075
		c-2.4057007-2.2994995-5.8023071-3.5027924-9.3050995-3.5027924c-3.5037079,0-6.8993988,1.2032928-9.3059998,3.5027924
		c-2.5119019,2.3706055-3.71521,5.6970062-3.71521,8.8461075c0,3.1130981,1.2033081,6.4034958,3.71521,8.8100967
		c2.406601,2.2994995,5.8022919,3.5019073,9.3059998,3.5019073c3.5027924,0,6.8993988-1.2024078,9.3050995-3.5019073
		C173.699646,130.1544037,174.9029388,126.864006,174.9029388,123.7509079 M161.8826447,117.3465042
		c1.6271973,0,3.4317017,0.6371994,4.7411957,1.8756027c1.0962067,1.0610962,1.9107056,2.6883011,1.9107056,4.528801
		c0,1.8044968-0.8144989,3.431694-1.9107056,4.528801c-1.0971069,1.0961914-2.6540985,1.8395996-4.7411957,1.8395996
		c-2.0529175,0-3.6450043-0.7785034-4.7772064-1.8756104c-0.8847046-0.8486938-1.8746948-2.2994919-1.8746948-4.3874969
		c0-1.6623001,0.6011963-3.3965912,1.8746948-4.6340942C158.3789368,117.9477081,160.1834412,117.3465042,161.8826447,117.3465042
		 M184.080246,135.5328064v-14.4360046l11.2868958,14.4360046h6.1208954v-23.5998077h-6.1208954v14.4360046l-11.2868958-14.4360046
		h-6.1208954v23.5998077H184.080246z M214.5362396,135.5328064c4.0337982,0,7.1829071-1.6983032,9.0585022-3.5738983
		c2.2994843-2.2994995,3.0779877-5.0597992,3.0779877-8.1728973c0-2.547905-0.5309906-5.9445038-3.29039-8.597702
		c-3.0429077-2.9367065-7.0056-3.2553101-9.3762054-3.2553101h-8.031601v23.5998077H214.5362396z M212.0954437,117.1341019
		h1.4858856c1.5219116,0,3.4317017,0.141304,4.8825073,1.4859009c1.1681976,1.0970993,1.8404999,2.9718018,1.8404999,5.166008
		c0,2.6180954-1.0269012,4.1039963-1.8044891,4.8473969c-1.5930023,1.5569916-3.6801147,1.698288-5.1660156,1.698288h-1.2383881
		V117.1341019z"/>
	<path class="st0" d="M327.4299011,130.3373718c0.3977966,1.5084076,1.1430054,2.8674011,2.0717773,3.7683105
		c1.2834167,1.2554932,2.9286194,1.8647919,5.0310364,1.8647919c4.3136902,0,7.3259888-2.9223022,7.3259888-7.1063995
		c0-1.7108917-0.5220032-3.0302963-1.6416321-4.1498947c-0.931488-0.930603-2.1302795-1.5615005-3.644989-2.221199
		l-2.3381958-1.0223999c-0.9332886-0.4113007-1.8927002-0.8343048-2.6729736-1.6137009
		c-0.7443237-0.7029037-1.0242004-1.3526993-1.0242004-2.3877029c0-2.4380951,1.8386841-4.1417999,4.4711609-4.1417999
		c1.467926,0,2.4255371,0.4995041,2.9709167,0.9188995c0.4752197,0.3807068,0.9611816,0.9629974,1.3274841,1.5821991
		l1.5174255-1.0035019c-0.5300903-0.9107895-1.2752991-1.7225952-2.0834961-2.2616959
		c-1.0836182-0.722702-2.1897278-1.0314026-3.6963196-1.0314026c-3.7970886,0-6.4494019,2.4263992-6.4494019,5.9012985
		c0,1.5606003,0.4536133,2.6343079,1.564209,3.7071075c0.9729004,0.9404984,2.0663757,1.4417953,2.9447937,1.8449936
		l2.3930969,1.1151047c1.269928,0.5804977,2.2743225,1.0394974,3.0231018,1.7486954
		c0.8892212,0.8154068,1.3239136,1.838707,1.3239136,3.1248016c0,3.5738983-2.7342224,5.2010956-5.2740173,5.2010956
		c-1.5776978,0-2.7774048-0.4644012-3.7755127-1.4624939c-0.7271729-0.7658997-1.2572937-1.8009033-1.4921875-2.8943939
		L327.4299011,130.3373718z"/>
</g>
<polygon class="st0" points="318.0291138,135.5325317 326.6907043,135.5325317 326.6907043,133.7370453 319.9713135,133.7370453 
	319.9713135,111.9336319 318.0291138,111.9336319 "/>
<rect x="311.1381226" y="111.9338989" class="st0" width="1.9413116" height="23.5988998"/>
<g>
	<path class="st0" d="M293.0923767,130.3373718c0.3987122,1.5084076,1.1430054,2.8674011,2.0717773,3.7683105
		c1.2834167,1.2554932,2.9286194,1.8647919,5.0310364,1.8647919c4.3136902,0,7.3259888-2.9223022,7.3259888-7.1063995
		c0-1.7108917-0.5211182-3.0293961-1.6416016-4.1498947c-0.930603-0.930603-2.1303101-1.5615005-3.6450195-2.221199
		l-2.3373108-1.0223999c-0.9341736-0.4113007-1.8935852-0.8343048-2.6738586-1.6137009
		c-0.7443237-0.7029037-1.0242004-1.3526993-1.0242004-2.3877029c0-2.4380951,1.8386841-4.1417999,4.4702759-4.1417999
		c1.468811,0,2.4264221,0.4995041,2.9718018,0.9188995c0.4761047,0.3807068,0.9611816,0.9629974,1.3275146,1.5821991
		l1.517395-1.0035019c-0.5300903-0.9107895-1.2752991-1.7234955-2.0826111-2.2616959
		c-1.0845032-0.722702-2.1906128-1.0314026-3.6972046-1.0314026c-3.7970886,0-6.4494019,2.4263992-6.4494019,5.9012985
		c0,1.5606003,0.4536133,2.6343079,1.564209,3.7071075c0.9738159,0.9404984,2.0664062,1.4417953,2.9447937,1.8449936
		l2.3930969,1.1151047c1.269928,0.5804977,2.2743225,1.0394974,3.0231323,1.7486954
		c0.8900757,0.8154068,1.3238831,1.838707,1.3238831,3.1248016c0,3.5738983-2.7342224,5.2010956-5.2740173,5.2010956
		c-1.5776672,0-2.7773743-0.4644012-3.7754822-1.4624939c-0.7272034-0.7649994-1.2573242-1.8009033-1.492218-2.8943939
		L293.0923767,130.3373718z"/>
	<path class="st0" d="M276.0318909,130.3373718c0.3977661,1.5084076,1.1429749,2.8674011,2.0726624,3.7683105
		c1.2825317,1.2554932,2.9277344,1.8647919,5.0301208,1.8647919c4.3136902,0,7.3259888-2.9223022,7.3259888-7.1063995
		c0-1.7108917-0.5220032-3.0302963-1.6416016-4.1498947c-0.930603-0.930603-2.1303101-1.5615005-3.644989-2.221199
		l-2.3373108-1.0223999c-0.9342041-0.4113007-1.8936157-0.8343048-2.6738892-1.6137009
		c-0.7443237-0.7029037-1.0242004-1.3526993-1.0242004-2.3877029c0-2.4380951,1.8387146-4.1417999,4.4711914-4.1417999
		c1.4678955,0,2.4255066,0.4995041,2.9708862,0.9188995c0.4761353,0.3807068,0.9620972,0.9629974,1.3275146,1.5821991
		l1.517395-1.0035019c-0.5300903-0.9107895-1.2752686-1.7225952-2.0825806-2.2616959
		c-1.0845337-0.722702-2.1906128-1.0314026-3.6972046-1.0314026c-3.7970886,0-6.4494019,2.4263992-6.4494019,5.9012985
		c0,1.5606003,0.4535828,2.6343079,1.5641785,3.7071075c0.9738159,0.9404984,2.0664062,1.4417953,2.9448242,1.8449936
		l2.3930969,1.1151047c1.2698975,0.5804977,2.274292,1.0394974,3.0231018,1.7486954
		c0.8891907,0.8154068,1.3239136,1.838707,1.3239136,3.1248016c0,3.5738983-2.7342224,5.2010956-5.2740173,5.2010956
		c-1.5776978,0-2.7774048-0.4644012-3.7755127-1.4624939c-0.7271729-0.7658997-1.2572937-1.8009033-1.4921875-2.8943939
		L276.0318909,130.3373718z"/>
	<path class="st0" d="M261.624054,134.1749725c-5.6673279,0-10.2780151-4.6763916-10.2780151-10.4237976
		c0-5.7482986,4.6106873-10.4237976,10.2780151-10.4237976c5.6672974,0,10.2770691,4.675499,10.2770691,10.4237976
		C271.901123,129.4985809,267.2913513,134.1749725,261.624054,134.1749725 M261.624054,111.531868
		c-7.008316,0-12.2931213,5.2533112-12.2931213,12.2193069c0,6.9660034,5.2848053,12.2192993,12.2931213,12.2192993
		c7.0082703,0,12.2930908-5.2532959,12.2930908-12.2192993C273.9171448,116.7851791,268.6323242,111.531868,261.624054,111.531868"
		/>
</g>
<polygon class="st0" points="236.6037903,135.5325317 238.5450745,135.5325317 238.5450745,123.4797363 246.6531677,123.4797363 
	246.6531677,121.6842422 238.5450745,121.6842422 238.5450745,113.7291336 246.9456787,113.7291336 246.9456787,111.9336319 
	236.6037903,111.9336319 "/>
<g>
	<path class="st1" d="M413.7700195,141.1103821c0.2474976-0.7497101,0.6210022-1.4300995,1.1007385-1.9980011
		c0.6083984,0.1970978,1.1339722,0.293396,1.5903015,0.293396c1.8548584,0,2.5514832-1.5867004,2.8889771-4.3145905
		c0.3384094-2.7378082,0.9953918-4.0140076,1.8944702-4.0140076c1.2771301,0,2.4768372,2.5829926,4.4883423,2.5829926
		c0.907196,0,1.6631775-0.5291901,1.9943848-0.927887c0.8981934,0.3023987,1.6991882,0.8756866,2.0736084,1.8963013
		c0.3887939-0.599411,0.5651855-1.1457062,0.5651855-1.6587067c0-0.9387054-0.5885925-1.7666931-1.5390015-2.6027985
		c0.1062317-2.6109009-1.6298828-2.9043045-3.0888062-3.1032104c-1.5119934-0.2069931-2.4587708-0.3986893-2.4587708-1.8071899
		c0-3.1608047,4.7411804-0.8568039,4.9481812-4.8384018c-1.1699829,0.591301-2.2688904,0.2177963-3.4883728-0.3888016
		c2.7467957-0.3491974,3.9266663-0.7775955,4.1579895-2.6576996c-1.3383179,0.4004974-2.2653198,0-3.5289001-0.6713943
		c1.3904724-0.4239044,3.8330688-1.2222061,3.1589966-3.1689072c-0.4500122,0.2528992-1.2330017,0.0459061-2.0852966-0.1826935
		c-0.8244324-0.221405-1.7189941-0.4608002-2.4498291-0.3159027c-1.0025635-1.7991028-2.7215881-2.1158981-4.5503845-2.1158981
		c-0.7398071,0-1.9763794,0.053093-2.6379089,0.053093c-2.5497131,0-4.0598755-0.7415924-4.2056885-4.5980988
		c-0.0134888-0.3608932-0.0315247-0.789299-0.1007996-1.2167969c0.218689-0.1944046,1.2374878-0.4095001,2.4524841-0.4095001
		c2.1582336,0,4.9356079,0.6813049,4.9356079,3.3777008c0,0.4356003-0.072876,0.9234009-0.2321777,1.469696
		c0.7010803,0,1.3923035,0.0306091,2.0735779,0.1053009c0.145813-0.6533966,0.197998-1.2113953,0.197998-1.6856918
		c0-3.7008057-3.178772-5.814003-7.9856873-5.814003c-0.8838196,0-1.3211975,0.0701981-1.7010193,0.0701981
		c-0.5480957,0-0.9764709-0.1467056-2.105072-1.0421982c-0.5552979-0.4419022-1.6983032-1.314003-3.6962891-2.0358047
		c-3.3777466-1.2203979-5.7951355-2.1869965-7.1757202-5.5494003c3.4685974-0.3752975,10.8495178,2.9511032,13.9059143,7.3746033
		c1.3220825-1.8513031,0.4445801-4.0914001-1.7865295-7.2819061c2.3373108,1.2096024,5.0175171,3.417305,8.2728271,6.3828049
		c1.1807861-1.3733978,0.3554688-3.6170959-3.5100403-7.4519958c3.7071228,1.1969986,7.3485107,2.5415955,10.9143372,4.3388977
		c0.6785889-2.1987-1.5903015-4.5855026-6.7302246-7.0793991c10.346405,0,15.5016174-1.7028046,15.3054199-4.8626938
		c-6.2604065,0.4454956-9.7731018,0.5795975-12.9411316,0.5238037c10.1421204-3.8160095,14.7654114-7.5312119,13.7133179-11.0196075
		c-4.1372986,2.1744003-8.3781128,3.9383926-12.6836853,5.6843948c8.782196-6.7103882,12.2129822-11.6928024,10.0151672-14.4315033
		c-3.9356689,3.4155121-7.9469604,6.6762009-12.1868591,9.6462021c7.1045837-8.8172913,9.8441772-15.192894,6.6779785-17.1746902
		c-3.1679993,4.6611023-6.3836975,8.8740005-10.0151978,13.1138992c4.9571838-10.2545967,5.9508057-16.95961,2.5361938-18.5993996
		c-2.0636902,5.9085007-4.7312927,11.6162987-7.70401,17.0297966c2.957428-12.3533974,2.3345947-18.5004005-1.3382874-19.1970024
		c-1.1042786,10.143898-5.0408936,27.4418983-12.4451904,35.0244026c-0.1206055-1.7766037,0.0539856-3.4649963,0.7208862-5.0093994
		l1.099823,0.2250061c-0.4959106-2.3733139-0.2250061-4.5666046,0.7721863-6.7329025l1.175415,0.2249985
		c-0.7632141-1.1231995-1.053894-3.3156052-1.3095398-5.6529083c-0.1286621-1.1772003-0.2798767-2.4146957-0.464386-3.2238007
		c1.0899048-1.720787,1.440918-3.8429871,1.440918-5.966095c0-1.9052925-0.2825928-3.8115005-0.5661011-5.4305992
		c-2.0691223,1.9494019-3.7206116,4.3154984-4.8114014,7.0605011h-7.2900085c-1.9584045,0-3.4569092,0.5400047-3.8303833,2.8394966
		c-2.6370239-0.2681999-4.0932007,1.2509995-4.0932007,3.284996c0,0.7740021,0.2105713,1.6227112,0.6480103,2.4759064
		c0.7091675-0.9557953,1.8989868-1.456192,3.0464783-1.456192c1.3977051,0,2.7323914,0.7424927,3.0617981,2.3057938
		c1.7738953-0.1755066,3.837616,0.7974014,3.2481079,2.9654999c-1.026001-0.8784027-2.6261902-1.9269104-4.3631897-1.9269104
		c-1.1205139,0-3.009613,0.4347076-4.474823,0.4347076c-1.369812,0-2.3679199-0.3797989-2.105072-1.8494949
		c-0.7902222,0.567894-1.1781311,1.3347015-1.1781311,2.0924988c0,1.1025009,0.8226013,2.2805939,2.8719177,2.2805939
		c2.3309937,0,3.5837708-1.5200958,5.4602661-1.5200958c1.2141418,0,2.1942139,0.6371918,3.1149292,1.4822998
		c-0.9216003,0.6012039-1.6991882,0.6012039-2.4947815,0c-0.3744202,3.5135956-2.0727234,5.3891983-5.5134277,5.3891983
		c0.7019958,0.9225082,1.7973022,1.4697037,2.8503113,1.7648926c-2.9295044,2.4957123-4.0158081,7.1046066-3.8286133,10.8729019
		c-5.8211975,3.9708023-9.242981,6.0813065-10.1943054,6.0813065c-2.2626038,0-1.5111084-3.7701035-4.6170044-3.7701035
		c-0.3059692,0-0.6497803,0.0342026-1.0358887,0.108902c-1.5678101-0.3752975-2.7387085,0-3.6368713,1.593895
		c1.2860718-0.0431976,1.5677795,0.0873032,1.5677795,0.4689026c0,0.2997055-0.1727905,0.756897-0.1727905,1.4021988
		c-0.9576111,0.1377029-1.7307129,0.5679016-2.2752075,1.2671967c-1.5678101,0-2.3678894,1.3968048-2.6676025,2.6676102
		c0.6885071-0.2862015,1.3796997-0.3933105,2.078125-0.1719055c0.1592712,0.8288956,0.5327759,1.5182953,1.0952759,2.0429993
		c-0.2745056,0.3690033-0.4904785,0.8973007-0.6039124,1.4706039c-1.1700134,0.6020966-1.6946716,2.2751999-1.2914734,3.4658966
		c0.5678711-0.680397,1.2879028-1.0655975,2.1896667-1.0952988c0.7659302,1.4580002,1.6263123,1.9664993,2.4993286,1.9664993
		c2.0168762,0,4.1012878-2.7144012,5.2506104-2.7144012c0.3572693,0,0.659668,0.2780991,0.659668,0.6542969
		c0,0.898201-1.6407166,0.9333038-1.6407166,2.7423096c0,1.2770996,0.8091431,1.9952927,1.9836121,2.1626968
		c0.1035156,0.8963928-0.1214905,1.6920013-0.6740723,2.3714981c1.4472046,0.968399,3.0428772-1.2761993,3.2156982-2.5703964
		c1.2608948-0.2871017,1.9943848-1.1889038,1.9943848-2.1492004c0-1.0791092-0.8891907-1.3860016-0.8891907-2.2293091
		c0.000885-0.9944916,1.2393188-2.8088913,2.2679749-2.8088913c0.5994263,0,1.2276306,0.6263962,1.6632385,2.4002991
		c0.9782715-0.7983017,1.4741821-1.521904,1.8764954-2.6694031c0.9926758,0.6003036,1.6631775,0.7722015,2.737793,0.7722015
		c-0.4023132-0.7722015-0.4815063-1.2708054-0.4815063-2.2922974c1.076416,0.8001022,1.8764954,1.0988922,3.1499939,1.021492
		c-0.4734192-0.7964935-0.5993958-1.4930954-0.5993958-2.3696899c0.9692993,0.6740952,1.8674927,1.1726913,3.1643982,0.874794
		c-0.4266052-0.5759964-0.5949097-1.172699-0.5949097-1.9692001c1.270813,1.0809021,2.9565125,1.6110001,4.9563293,1.8963013
		c3.5513611,0.5066986,8.5859985,2.2878036,8.5859985,6.0237045c0,1.3652954-0.6759033,3.1418915-0.6759033,4.732193
		c0,1.3122025,0.4598694,2.6082001,1.394989,5.1515961c-0.1575012,0.3951035-0.217804,0.7406998-0.217804,1.0530014
		c0,0.9872971,0.5957947,1.6479034,0.5957947,2.5038071c0,0.3797989-0.1178894,0.799202-0.4580994,1.3022995
		c1.2735291,0.4679947,2.373291,0.0746994,3.0473938-1.2726059c0.4805908,0.3564072,1.0440063,0.7416,1.5632935,1.071907
		c0.2754211-0.4095078,0.5805359-0.9288025,0.8046265-1.3671112c0.6695862,0.3744049,1.1654663,0.5895081,1.9421997,0.6741028
		c-0.8630981-2.8152008,0.6723022-4.3127975,2.321106-4.3127975c1.4840698,0,3.0599976,1.2131958,3.0599976,3.748497
		c0,1.5174103-0.5589294,4.3812027-1.7091064,4.3812027c-0.6156006,0-2.2203064-0.836998-3.8277283-0.836998
		c-1.103363,0-1.9440002,0.387001-2.6873779,1.172699c-0.3050842,0.3230972-0.6570129,0.5840912-0.9971924,0.8280029
		c-0.8171997,0.585907-1.5155945,1.1051941-1.270813,2.2949982c0.6039124-0.3789062,1.100708-0.4985962,1.8963013-0.4985962
		c0.1674194,0.6974945,0.5211182,1.2312012,1.0664978,1.5956879c-0.219574,0.6597137-0.2106018,1.3077087,0,1.9476013
		c-0.9917908,0.8937073-0.9917908,1.9889984-0.6921082,3.2669983c0.3978271-0.6083832,1.1934204-1.1798859,1.9890137-1.1798859
		c0.8514099,0.6785889,1.5722961,0.8774872,2.7468262,0.7514954c0.1916809,0.6056976,0.5498657,1.1195984,1.0718689,1.5182953
		C412.6756287,139.2383728,412.8718262,140.0825806,413.7700195,141.1103821 M373.585022,139.6127777
		c0.4311218-0.8486938,1.1034241-1.5480042,1.8675232-1.9421997c0.9935913,0.5399933,1.8062744,0.7649994,2.4875793,0.7649994
		c3.3228149,0,3.7350159-5.5016937,6.384613-5.5016937c0.927002,0,1.1384888,0.709198,1.3356018,1.5209961
		c0.3114014,1.2834015,0.7658997,2.7008972,3.2805176,2.117691c0.8990784,0.6741028,1.3994751,1.4625092,1.3994751,2.5398102
		c1.3905029-1.0718994,1.5632935-2.2374115,0.9692993-3.8105927c0.4490967-0.8100128,0.6291199-1.4166107,0.6291199-1.894516
		c0-1.9133911-2.9079285-1.7469025-2.9079285-4.3046875c0-0.5733032,0.145813-1.2834091,0.5049133-2.1834106
		c1.0997925,0.3023987,2.0736084,0.7776031,2.6720886,1.8747101c0.367218-0.6705017,0.5084839-1.2339096,0.5084839-1.716301
		c0-1.6119003-1.7018738-2.2797089-1.7018738-3.321907c1.3769836,0.2349014,2.3768921,0.7164001,2.9627991,1.4976044
		c0.3725891-0.4518051,0.5220032-0.8685074,0.5220032-1.2591019c0-1.5669022-2.4687195-2.7729034-2.4687195-4.0544968
		c1.3526917,0.1808929,2.3256226,0.6785965,3.1167297,1.7468948c0.3420105-0.3779984,0.4779053-0.7767029,0.4779053-1.1871033
		c0-1.583992-2.0295105-3.3353958-2.0295105-4.7159958c0-0.9314957,0.9053955-1.7739029,6.3863831-2.6468964
		c0.2763062-1.5678024,0.4410095-2.8997955,0.4410095-3.7899017c0-2.1401978-1.026886-2.9051971-4.8735046-4.4658051
		c-2.9744873,0.7110062-5.0417786,2.052002-6.6716919,3.2256012c-1.4921875,1.0737-2.5794067,1.7532043-3.8997192,1.7532043
		c-1.0628967,0-2.6648865-0.4167023-3.3902893-1.2366028c-0.515686,0.4419022-0.7452087,1.0431061-0.7452087,1.658699
		c0,0.9333038,0.5283203,1.8999023,1.3887024,2.3976059c-0.4230042,0.9953995-0.8927917,1.5363007-1.9205933,1.8521957
		c0.3789062,1.1465988,1.7738953,1.5749969,2.8503113,1.4463043c-0.2556152,0.7479019-0.7721863,1.2653961-1.5030212,1.593895
		c0.5688171,0.7631989,1.4967041,1.1934052,2.5461121,1.0737c-0.8217163,5.0454025-2.0213928,6.362999-3.4307861,6.362999
		c-1.5390015,0-3.3282166-1.573204-5.1444092-1.573204c-0.809082,0-1.6227112,0.3123016-2.4227905,1.2141037
		c-1.5687256,0.1314011-2.4624329,0.9269943-2.8368225,2.447998c0.7722168-0.3698959,1.1466064-0.3698959,2.0412292-0.0746994
		c0.0116882,0.3951035,0.0350952,0.7874985,0.074707,1.1744995c-0.7443237,0.5967102-1.0485229,1.3968048-1.1520081,2.2932129
		c-1.0899353,0.7748871-1.591217,2.1365967-0.9639282,3.3371887c0.5598145-0.7695007,1.0368042-1.0196991,1.5525208-1.0196991
		c0.4887085,0,1.1951904,0.2492981,1.8872681,0.5139008c-0.2240906,0.6813049-0.2240906,1.7765961,0.197113,2.3733063
		C372.7093506,137.1746826,372.7840576,138.0404816,373.585022,139.6127777 M402.6496277,143.0525818
		c1.4742126-2.0447998,1.7694092-4.4855957,0.9738159-6.8517151c0.6956787,0.0576172,1.2986755-0.0206909,1.7738953-0.2294922
		c-1.0962219-1.2932892-1.5957031-2.5253906-2.0196228-3.9113922c-0.5012817-1.6344147-1.1006775-3.0420074-4.1165771-3.7691956
		c-0.5472107-3.4353104-0.3743896-6.1830063,2.3688049-8.6481094c-0.3761902-0.9116974-0.7479248-1.8656998-1.0440063-2.7422943
		c-4.1652222,2.5406952-4.3668213,7.880394-3.8664246,12.0905991c-1.3067932,0.8990936-2.0465698,2.9745026-2.0465698,4.6295929
		c0,2.1923981,1.2833862,3.8583069,2.4291077,5.2695007c0.9360046,1.1511078,1.7450867,2.2050018,1.981781,3.3128967
		c0.6219177-0.3654022,1.1223145-0.8639984,1.5021057-1.4904022
		C401.0818481,141.4847717,401.8540344,142.378479,402.6496277,143.0525818 M378.990448,93.26548
		c0.4256897-0.7956009,1.2032776-1.4976044,1.9988708-1.6947021c0-3.4145966,0.684021-6.0344925,2.5415955-8.6255951
		c-3.5423889-2.2949982-7.849762-5.1353912-7.849762-8.4059982c0-1.3491058,0.8171692-3.3723068,0.8171692-4.9824066
		c0-1.2680969-0.5066833-2.3939896-2.3192749-3.1616974c-0.7722168-1.1735916-1.8630066-1.6703949-3.4353333-1.2996063
		c0.4725342,0.2979126,0.7722168,0.8001099,0.9972229,1.2996063c-0.5957947,0.2727051-1.1186829,0.6768112-1.5776978,1.196106
		c-0.8001099-0.5021973-1.493103-0.7271957-2.4614868-0.5021973c-1.0062256-0.7722015-2.3733215-0.7722015-3.3417053,0
		c0.6029968,0.2753983,0.9683838,0.572403,1.3661804,1.0475998c-0.5894775,0.9260941-0.7631836,1.820694-0.6921082,2.6702957
		c-0.4976807,0.0369034-0.9395752,0.2052002-1.3013916,0.4940948c-1.3076782-0.6884995-3.1337891,0.2241058-3.4694824,1.4940033
		c0.6443787-0.1799927,1.2797852-0.0774002,1.8215942,0.2753983c-0.147583,0.3762054-0.2160034,0.7496948-0.2160034,1.1115036
		c0,1.4570999,0.9125977,2.8053055,3.1671143,3.020401c1.5488892,0.1476059,2.5991821,0.8244019,2.5991821,1.8855057
		c0,0.7073898-0.4689026,1.0673904-1.3157959,1.0673904c-1.3256836,0-1.8755798,0.8721085-1.8755798,1.8360062
		c0,0.5633926,0.1880798,1.1583023,0.5192871,1.6280899c-0.6029968,0.6705093-1.099823,0.8703079-1.9979858,1.0998001
		c0.9683838,1.0665131,2.0690613,1.3392029,3.4352722,0.845108c0.5760193,0.325798,1.053009,0.4617004,1.4552917,0.4617004
		c2.1365967,0,1.9071045-3.455101,3.8475037-3.455101c0.7002258,0,0.9143982,0.4365005,0.9143982,1.0097961
		c0,0.850502-0.4706726,2.0025024-0.6758728,2.4776993c0.4689026,0.2988052,1.2644958,0.5283051,2.0645752,0.4014053
		c-0.295166,0.9972-0.4212036,2.373291,0.2997131,3.3659973c0.4724731-0.6975021,0.978302-1.1691055,1.7684937-1.4697037
		c-0.2492981,1.6397934-0.0549011,2.4426041,0.4733887,3.214798c0.5003967-0.7721939,0.9684143-1.271698,1.9466858-1.3454971
		C378.3208313,91.27108,378.2461548,92.3663788,378.990448,93.26548 M392.5777283,66.0188751
		c-1.3382874,0-2.6630859-0.7973862-2.6630859-2.570385h1.8161926c-0.2330933,0.3419914-0.3302917,0.6236916-0.3302917,0.8522911
		c0,0.5561981,0.5769043,0.794693,1.1312866,0.794693c0.6390076,0,1.322998-0.3230896,1.322998-0.91259
		c0-0.2115021-0.0881958-0.4571953-0.2987976-0.7343941h1.6992188
		C395.255249,65.221489,393.8746338,66.0188751,392.5777283,66.0188751 M394.7836609,60.6827774h2.0141602
		c0.7281189-1.7262001,1.6884155-3.3398972,2.8755188-4.814991c-0.0891113-0.7452049-0.2484131-1.4769058-0.5039978-2.1888084
		C397.4278259,55.1504898,395.6539307,58.490387,394.7836609,60.6827774"/>
</g>
</svg>
